<svg width="600" height="113" viewBox="0 0 600 113" fill="none" xmlns="http://www.w3.org/2000/svg">
<path d="M25.4578 56.0254C25.4578 39.1464 39.1361 25.4647 56.0072 25.4647C65.8337 25.4647 74.5769 30.106 80.1653 37.3171L83.7898 33.6914C77.2573 25.5703 67.2392 20.3732 56.0072 20.3732C36.3225 20.3732 20.3663 36.336 20.3663 56.0254C20.3663 75.7147 36.3225 91.6776 56.0072 91.6776C73.9522 91.6776 88.7985 78.4118 91.2827 61.1503L86.3233 59.821C84.455 74.9087 71.5937 86.586 56.0072 86.586C39.1361 86.586 25.4578 72.9044 25.4578 56.0254Z" fill="#474EF4"/>
<path d="M19.4123 38.1108L14.41 36.77C11.6972 42.6245 10.1831 49.1481 10.1831 56.0252C10.1831 81.3405 30.6985 101.864 56.0072 101.864C81.316 101.864 101.831 81.3405 101.831 56.0252C101.831 30.71 81.316 10.1864 56.0072 10.1864C49.0196 10.1864 42.3974 11.7509 36.4715 14.5488L37.8134 19.5587C43.2894 16.8194 49.4684 15.278 56.0072 15.278C78.5024 15.278 96.7398 33.5204 96.7398 56.0252C96.7398 78.5301 78.5024 96.7725 56.0072 96.7725C33.5121 96.7725 15.2747 78.5301 15.2747 56.0252C15.2747 49.5974 16.7625 43.5174 19.4123 38.1108Z" fill="#474EF4"/>
<path d="M5.09157 56.0254C5.09157 27.8946 27.8881 5.09157 56.0072 5.09157C84.1264 5.09157 106.923 27.8946 106.923 56.0254C106.923 83.9285 84.494 106.59 56.6891 106.955L58.0443 112.014C88.0334 110.942 112.014 86.2844 112.014 56.0254C112.014 25.0842 86.94 0 56.0072 0C25.0745 0 0 25.0842 0 56.0254C0 76.03 10.4814 93.5863 26.2508 103.498L29.953 99.7946C15.064 90.9063 5.09157 74.6312 5.09157 56.0254Z" fill="#474EF4"/>
<path d="M146.336 58.8748C146.336 53.7371 147.381 49.2565 149.472 45.4331C151.563 41.5499 154.46 38.5629 158.164 36.4719C161.868 34.3212 166.11 33.2459 170.889 33.2459C177.043 33.2459 182.121 34.7992 186.123 37.9057C190.186 40.9525 192.904 45.2539 194.278 50.8098H180.747C180.03 48.6591 178.805 46.9863 177.072 45.7915C175.4 44.537 173.309 43.9097 170.8 43.9097C167.215 43.9097 164.377 45.224 162.287 47.8526C160.196 50.4215 159.15 54.0955 159.15 58.8748C159.15 63.5944 160.196 67.2684 162.287 69.897C164.377 72.4659 167.215 73.7503 170.8 73.7503C175.878 73.7503 179.193 71.4802 180.747 66.9399H194.278C192.904 72.3166 190.186 76.588 186.123 79.7543C182.061 82.9206 176.983 84.5037 170.889 84.5037C166.11 84.5037 161.868 83.4583 158.164 81.3673C154.46 79.2167 151.563 76.2296 149.472 72.4062C147.381 68.523 146.336 64.0126 146.336 58.8748Z" fill="#474EF4"/>
<path d="M215.118 17.3847V83.6972H202.573V17.3847H215.118Z" fill="#474EF4"/>
<path d="M223.391 58.6956C223.391 53.6773 224.377 49.2266 226.348 45.3435C228.38 41.4603 231.098 38.4732 234.503 36.3823C237.968 34.2914 241.821 33.2459 246.063 33.2459C249.767 33.2459 252.993 33.9927 255.741 35.4862C258.549 36.9797 260.789 38.8616 262.462 41.1317V34.0524H275.097V83.6972H262.462V76.4387C260.849 78.7686 258.609 80.7102 255.741 82.2634C252.933 83.757 249.677 84.5037 245.973 84.5037C241.791 84.5037 237.968 83.4284 234.503 81.2777C231.098 79.127 228.38 76.1101 226.348 72.227C224.377 68.284 223.391 63.7736 223.391 58.6956ZM262.462 58.8748C262.462 55.828 261.864 53.2293 260.67 51.0786C259.475 48.8682 257.862 47.1954 255.831 46.0604C253.799 44.8655 251.619 44.2681 249.289 44.2681C246.959 44.2681 244.808 44.8357 242.837 45.9707C240.865 47.1058 239.252 48.7786 237.998 50.989C236.803 53.1397 236.206 55.7085 236.206 58.6956C236.206 61.6827 236.803 64.3113 237.998 66.5814C239.252 68.7918 240.865 70.4945 242.837 71.6893C244.868 72.8841 247.019 73.4815 249.289 73.4815C251.619 73.4815 253.799 72.914 255.831 71.7789C257.862 70.5841 259.475 68.9113 260.67 66.7606C261.864 64.5502 262.462 61.9216 262.462 58.8748Z" fill="#474EF4"/>
<path d="M299 41.759C300.613 39.1304 302.703 37.0693 305.272 35.5758C307.901 34.0823 310.888 33.3355 314.234 33.3355V46.5084H310.918C306.975 46.5084 303.988 47.4344 301.957 49.2864C299.985 51.1384 299 54.3644 299 58.9644V83.6972H286.454V34.0524H299V41.759Z" fill="#474EF4"/>
<path d="M318.561 58.6956C318.561 53.6773 319.547 49.2266 321.519 45.3435C323.55 41.4603 326.268 38.4732 329.673 36.3823C333.138 34.2914 336.992 33.2459 341.233 33.2459C344.937 33.2459 348.163 33.9927 350.911 35.4862C353.719 36.9797 355.959 38.8616 357.632 41.1317V34.0524H370.267V83.6972H357.632V76.4387C356.019 78.7686 353.779 80.7102 350.911 82.2634C348.103 83.757 344.848 84.5037 341.144 84.5037C336.962 84.5037 333.138 83.4284 329.673 81.2777C326.268 79.127 323.55 76.1101 321.519 72.227C319.547 68.284 318.561 63.7736 318.561 58.6956ZM357.632 58.8748C357.632 55.828 357.035 53.2293 355.84 51.0786C354.645 48.8682 353.032 47.1954 351.001 46.0604C348.97 44.8655 346.789 44.2681 344.459 44.2681C342.129 44.2681 339.979 44.8357 338.007 45.9707C336.036 47.1058 334.423 48.7786 333.168 50.989C331.973 53.1397 331.376 55.7085 331.376 58.6956C331.376 61.6827 331.973 64.3113 333.168 66.5814C334.423 68.7918 336.036 70.4945 338.007 71.6893C340.038 72.8841 342.189 73.4815 344.459 73.4815C346.789 73.4815 348.97 72.914 351.001 71.7789C353.032 70.5841 354.645 68.9113 355.84 66.7606C357.035 64.5502 357.632 61.9216 357.632 58.8748Z" fill="#474EF4"/>
<path d="M394.17 41.2213C395.783 38.9512 397.993 37.0693 400.801 35.5758C403.669 34.0225 406.925 33.2459 410.569 33.2459C414.81 33.2459 418.634 34.2914 422.039 36.3823C425.504 38.4732 428.222 41.4603 430.194 45.3435C432.225 49.1669 433.241 53.6176 433.241 58.6956C433.241 63.7736 432.225 68.284 430.194 72.227C428.222 76.1101 425.504 79.127 422.039 81.2777C418.634 83.4284 414.81 84.5037 410.569 84.5037C406.925 84.5037 403.699 83.757 400.891 82.2634C398.143 80.7699 395.902 78.8881 394.17 76.6179V107.355H381.624V34.0524H394.17V41.2213ZM420.426 58.6956C420.426 55.7085 419.799 53.1397 418.544 50.989C417.349 48.7786 415.736 47.1058 413.705 45.9707C411.734 44.8357 409.583 44.2681 407.253 44.2681C404.983 44.2681 402.832 44.8655 400.801 46.0604C398.83 47.1954 397.217 48.8682 395.962 51.0786C394.767 53.289 394.17 55.8878 394.17 58.8748C394.17 61.8619 394.767 64.4606 395.962 66.671C397.217 68.8814 398.83 70.5841 400.801 71.7789C402.832 72.914 404.983 73.4815 407.253 73.4815C409.583 73.4815 411.734 72.8841 413.705 71.6893C415.736 70.4945 417.349 68.7918 418.544 66.5814C419.799 64.371 420.426 61.7424 420.426 58.6956Z" fill="#474EF4"/>
<path d="M454.007 41.759C455.62 39.1304 457.711 37.0693 460.279 35.5758C462.908 34.0823 465.895 33.3355 469.241 33.3355V46.5084H465.925C461.982 46.5084 458.995 47.4344 456.964 49.2864C454.992 51.1384 454.007 54.3644 454.007 58.9644V83.6972H441.461V34.0524H454.007V41.759Z" fill="#474EF4"/>
<path d="M483.157 28.138C480.947 28.138 479.095 27.451 477.601 26.077C476.167 24.6432 475.45 22.8808 475.45 20.7899C475.45 18.699 476.167 16.9665 477.601 15.5924C479.095 14.1586 480.947 13.4417 483.157 13.4417C485.367 13.4417 487.189 14.1586 488.623 15.5924C490.117 16.9665 490.864 18.699 490.864 20.7899C490.864 22.8808 490.117 24.6432 488.623 26.077C487.189 27.451 485.367 28.138 483.157 28.138ZM489.34 34.0524V83.6972H476.795V34.0524H489.34Z" fill="#474EF4"/>
<path d="M497.613 58.8748C497.613 53.7371 498.659 49.2565 500.75 45.4331C502.84 41.5499 505.738 38.5629 509.442 36.4719C513.146 34.3212 517.387 33.2459 522.167 33.2459C528.32 33.2459 533.398 34.7992 537.401 37.9057C541.463 40.9525 544.181 45.2539 545.555 50.8098H532.024C531.307 48.6591 530.082 46.9863 528.35 45.7915C526.677 44.537 524.586 43.9097 522.077 43.9097C518.493 43.9097 515.655 45.224 513.564 47.8526C511.473 50.4215 510.428 54.0955 510.428 58.8748C510.428 63.5944 511.473 67.2684 513.564 69.897C515.655 72.4659 518.493 73.7503 522.077 73.7503C527.155 73.7503 530.471 71.4802 532.024 66.9399H545.555C544.181 72.3166 541.463 76.588 537.401 79.7543C533.338 82.9206 528.26 84.5037 522.167 84.5037C517.387 84.5037 513.146 83.4583 509.442 81.3673C505.738 79.2167 502.84 76.2296 500.75 72.4062C498.659 68.523 497.613 64.0126 497.613 58.8748Z" fill="#474EF4"/>
<path d="M600 57.7995C600 59.5917 599.88 61.2047 599.642 62.6385H563.349C563.648 66.223 564.902 69.0308 567.113 71.062C569.323 73.0932 572.041 74.1088 575.267 74.1088C579.927 74.1088 583.243 72.1075 585.214 68.1048H598.745C597.312 72.8841 594.564 76.827 590.501 79.9335C586.439 82.9803 581.45 84.5037 575.536 84.5037C570.757 84.5037 566.455 83.4583 562.632 81.3673C558.868 79.2167 555.911 76.1997 553.76 72.3166C551.669 68.4334 550.624 63.9528 550.624 58.8748C550.624 53.7371 551.669 49.2266 553.76 45.3435C555.851 41.4603 558.779 38.4732 562.542 36.3823C566.306 34.2914 570.637 33.2459 575.536 33.2459C580.256 33.2459 584.467 34.2615 588.171 36.2927C591.935 38.3239 594.832 41.2213 596.864 44.985C598.954 48.689 600 52.9605 600 57.7995ZM587.006 54.215C586.947 50.989 585.782 48.4201 583.511 46.5084C581.241 44.537 578.463 43.5512 575.178 43.5512C572.071 43.5512 569.442 44.5071 567.292 46.4188C565.201 48.2708 563.916 50.8695 563.438 54.215H587.006Z" fill="#474EF4"/>
</svg>
